{"title":"Beowulf 2007-DC AC3 XviD-BRRip-CC","uid":6809870,"size":1687628320,"categoryP":"video","categoryS":"movies","magnet":"?xt=urn:btih:19068c8b5647e88561a3a74d03b46e4865e8b961&amp;dn=Beowulf+2007-DC+AC3+XviD-BRRip-CC&amp;tr=udp%3A%2F%2Ftracker.openbittorrent.com%3A80&amp;tr=udp%3A%2F%2Fopen.demonii.com%3A1337&amp;tr=udp%3A%2F%2Ftracker.coppersurfer.tk%3A6969&amp;tr=udp%3A%2F%2Fexodus.desync.com%3A6969","seeders":0,"leechers":1,"uploader":"Caveman44","files":-1,"time":1321009262,"description":"[img]http://img600.imageshack.us/img600/8590/beowulf2007.jpg[/img]\n &lt;a href=&quot;\nhttp://www.imdb.com/title/tt0442933/&quot; rel=&quot;nofollow&quot; target=&quot;_NEW&quot;&gt;\nhttp://www.imdb.com/title/tt0442933/&lt;/a&gt;\n\nSource: Beowulf.2007.DC.720p.BluRay.x264-MySiLU \n\nSample and Screens included.\n\nSubtitles: Arabic, Chinese, Danish, Dutch, English, Farsi-Persian, Finnish, French, German, Greek, Hindi, Italian, Korean, Norwegian, Russian, Spanish, Swedish, Thai and Vietnamese.\n\nGeneral\nComplete name                    : Beowulf 2007-DC AC3 XviD-BRRip-CC.avi\nFormat                           : AVI\nFormat/Info                      : Audio Video Interleave\nFile size                        : 1.56 GiB\nDuration                         : 1h 54mn\nOverall bit rate                 : 1 946 Kbps\nWriting application              : VirtualDubMod 1.5.4.1 (build 2178/release)\nWriting library                  : VirtualDubMod build 2178/release\n\nVideo\nID                               : 0\nFormat                           : MPEG-4 Visual\nFormat profile                   : Simple@L3\nFormat settings, BVOP            : No\nFormat settings, QPel            : No\nFormat settings, GMC             : No warppoints\nFormat settings, Matrix          : Default (H.263)\nCodec ID                         : XVID\nCodec ID/Hint                    : XviD\nDuration                         : 1h 54mn\nBit rate                         : 1 489 Kbps\nWidth                            : 720 pixels\nHeight                           : 304 pixels\nDisplay aspect ratio             : 2.35:1\nFrame rate                       : 23.976 fps\nResolution                       : 8 bits\nColorimetry                      : 4:2:0\nScan type                        : Progressive\nBits/(Pixel*Frame)               : 0.284\nStream size                      : 1.19 GiB (76%)\nWriting library                  : XviD 1.1.2 (UTC 2006-11-01)\n\nAudio\nID                               : 1\nFormat                           : AC-3\nFormat/Info                      : Audio Coding 3\nCodec ID                         : 2000\nDuration                         : 1h 54mn\nBit rate mode                    : Constant\nBit rate                         : 448 Kbps\nChannel(s)                       : 6 channels\nChannel positions                : Front: L C R, Surround: L R, LFE\nSampling rate                    : 48.0 KHz\nStream size                      : 368 MiB (23%)\nAlignment                        : Split accross interleaves\nInterleave, duration             : 42 ms (1.00 video frame)\nInterleave, preload duration     : 500 ms\n\n[img]http://img508.imageshack.us/img508/7263/beowulf2007dcac3xvidbrr.jpg[/img]","torrent":{"xt":"urn:btih:19068c8b5647e88561a3a74d03b46e4865e8b961","amp;dn":"Beowulf+2007-DC+AC3+XviD-BRRip-CC","amp;tr":["udp%3A%2F%2Ftracker.openbittorrent.com%3A80","udp%3A%2F%2Fopen.demonii.com%3A1337","udp%3A%2F%2Ftracker.coppersurfer.tk%3A6969","udp%3A%2F%2Fexodus.desync.com%3A6969"],"infoHash":"19068c8b5647e88561a3a74d03b46e4865e8b961","infoHashBuffer":{"type":"Buffer","data":[25,6,140,139,86,71,232,133,97,163,167,77,3,180,110,72,101,232,185,97]},"announce":[],"urlList":[]}}